<svg width="24" height="24" viewBox="0 0 24 24" fill="none" xmlns="http://www.w3.org/2000/svg">
<path d="M7.5 2L9 7.5L10 10L9.5 11L8 10L7 11L6.5 12L7 13.5L6 14L5 14.5L4.5 16.5L5 18.5L7 21L10.5 22.5L14.5 22L18 19.5L19.5 15.5V12.5L18.5 11L16.5 10L19 4.5V2L18.5 1H17.5L17 1.5L15 5L13.5 9H13L10 1L9 0.5H8L7.5 2Z" fill="white"/>
<path d="M17.4312 9.81529C18.3853 9.96178 19.0459 10.4013 19.4128 10.9873C19.7798 11.5732 20 12.5987 20 13.9172C20 16.5541 19.1927 18.7516 17.578 20.4363C15.9633 22.121 13.9083 23 11.4128 23C10.4587 23 9.50459 22.8535 8.55046 22.4873C7.59633 22.121 6.86239 21.6083 6.20183 21.0223C5.46789 20.3631 4.88073 19.5573 4.51376 18.8248C4.22018 18.0191 4 17.2134 4 16.4076C4 15.5287 4.22018 14.7962 4.58716 14.2834C4.95413 13.7707 5.61468 13.4777 6.42202 13.258C6.27523 12.8917 6.12844 12.5987 6.05505 12.3057C5.98165 12.086 5.90826 11.8662 5.90826 11.7197C5.90826 11.2803 6.12844 10.7675 6.6422 10.2548C7.15596 9.74204 7.59633 9.52229 8.0367 9.52229C8.25688 9.52229 8.40367 9.52229 8.62385 9.59554C8.84404 9.66879 9.06422 9.74204 9.3578 9.96178C8.69725 7.76433 8.0367 5.93312 7.66972 4.6879C7.30275 3.44267 7.15596 2.63694 7.15596 2.1242C7.15596 1.46497 7.30275 0.952229 7.66972 0.585987C7.9633 0.219745 8.47706 0 9.06422 0C10.0183 0 11.2661 2.19745 12.8073 6.66561C13.1009 7.39809 13.2477 7.98408 13.3945 8.42357C13.5413 8.13057 13.6881 7.61783 13.9083 7.03185C15.4495 2.63694 16.7706 0.43949 17.7982 0.43949C18.3119 0.43949 18.7523 0.585987 19.1193 0.952229C19.4128 1.31847 19.633 1.83121 19.633 2.4172C19.633 2.85669 19.4862 3.73567 19.1193 4.98089C18.6789 6.22611 18.1651 7.83758 17.4312 9.81529ZM6.12844 16.2611C6.27523 16.4076 6.49541 16.7006 6.7156 17.0669C7.37615 18.0191 8.0367 18.5318 8.62385 18.5318C8.84404 18.5318 8.99083 18.4586 9.13761 18.3121C9.2844 18.1656 9.3578 18.0191 9.3578 17.9459C9.3578 17.7994 9.2844 17.5064 9.06422 17.1401C8.84404 16.7739 8.55046 16.3344 8.18349 15.8949C7.74312 15.3822 7.37615 14.9427 7.15596 14.7229C6.86239 14.5032 6.6422 14.3567 6.49541 14.3567C6.12844 14.3567 5.76147 14.5764 5.46789 14.9427C5.17431 15.3089 5.02752 15.8217 5.02752 16.3344C5.02752 16.7739 5.10092 17.2134 5.3211 17.7994C5.54128 18.3121 5.83486 18.8981 6.27523 19.4108C6.93578 20.1433 7.66972 20.8025 8.62385 21.242C9.57798 21.6815 10.5321 21.9013 11.7064 21.9013C13.7615 21.9013 15.4495 21.1688 16.844 19.6306C18.2385 18.0924 18.8991 16.1879 18.8991 13.8439C18.8991 13.1115 18.8257 12.5987 18.7523 12.1592C18.6789 11.7197 18.4587 11.4268 18.2385 11.2803C17.7982 10.914 16.9908 10.621 15.7431 10.328C14.4954 10.035 13.1743 9.88853 11.8532 9.88853C11.4862 9.88853 11.1927 9.96178 11.0459 10.1083C10.8991 10.2548 10.8257 10.4745 10.8257 10.7675C10.8257 11.5 11.1927 12.0127 12 12.3057C12.8073 12.5987 14.1284 12.8185 15.8899 12.8185H16.5505C16.6972 12.8185 16.844 12.8917 16.9174 12.965C16.9908 13.1115 17.0642 13.258 17.0642 13.4777C16.9174 13.6242 16.5505 13.8439 15.9633 14.0637C15.3761 14.2834 15.0092 14.5032 14.7156 14.7229C14.055 15.1624 13.5413 15.7484 13.1743 16.4076C12.8073 17.0669 12.5872 17.6529 12.5872 18.2389C12.5872 18.6051 12.6606 18.9713 12.8073 19.4841C12.9541 19.9968 13.0275 20.2898 13.0275 20.3631V20.5096V20.6561C12.5872 20.6561 12.2202 20.3631 11.9266 19.8503C11.633 19.3376 11.5596 18.6783 11.5596 17.7994V17.6529C11.4862 17.7261 11.4128 17.7994 11.3394 17.7994C11.2661 17.7994 11.1927 17.8726 11.0459 17.8726H10.7523C10.6789 17.8726 10.6055 17.7994 10.4587 17.7994C10.4587 17.9459 10.5321 18.0191 10.5321 18.1656V18.4586C10.5321 18.8248 10.3853 19.1911 10.0917 19.4841C9.79817 19.7771 9.43119 19.9236 8.99083 19.9236C8.33028 19.9236 7.66972 19.6306 6.93578 18.9713C6.27523 18.3121 5.90826 17.7261 5.90826 17.0669C5.90826 16.9204 5.90826 16.8471 5.98165 16.7739C5.98165 16.4076 6.05505 16.3344 6.12844 16.2611ZM10.8991 16.6274C11.0459 16.6274 11.2661 16.5541 11.4128 16.4076C11.5596 16.2611 11.633 16.0414 11.633 15.8949C11.633 15.6752 11.4862 15.2357 11.1927 14.5032C10.8991 13.7707 10.5321 13.0382 10.0917 12.379C9.79817 11.8662 9.43119 11.4268 9.13761 11.207C8.84404 10.914 8.55046 10.8408 8.25688 10.8408C8.0367 10.8408 7.81651 10.9873 7.52294 11.2803C7.22936 11.5732 7.15596 11.793 7.15596 12.086C7.15596 12.3057 7.30275 12.7452 7.52294 13.258C7.81651 13.7707 8.11009 14.2834 8.55046 14.8694C8.99083 15.4554 9.43119 15.9682 9.87156 16.3344C10.3119 16.4809 10.6055 16.6274 10.8991 16.6274ZM12.4404 9.00955L10.6789 4.10191C10.2385 2.85669 9.94495 1.97771 9.65138 1.61146C9.43119 1.24522 9.21101 1.02548 8.91743 1.02548C8.69725 1.02548 8.55046 1.09873 8.40367 1.24522C8.18349 1.46497 8.11009 1.68471 8.11009 1.97771C8.11009 2.49045 8.33028 3.29618 8.69725 4.46815C9.06422 5.64013 9.65138 7.25159 10.3853 9.15605C10.4587 9.00955 10.5321 8.93631 10.6789 8.93631C10.8257 8.86306 10.9725 8.86306 11.1193 8.86306H11.4862C11.7064 8.93631 12 8.93631 12.4404 9.00955ZM14.2018 13.7707C13.7615 13.7707 13.3211 13.6975 12.8807 13.6242C12.4404 13.551 12.0734 13.4777 11.7064 13.3312C11.8532 13.6975 12 13.9904 12.1468 14.3567C12.2936 14.7229 12.367 15.0159 12.4404 15.3822C12.6606 15.0892 12.9541 14.7962 13.2477 14.5032C13.6147 14.2102 13.9083 13.9904 14.2018 13.7707ZM16.3303 9.52229C17.0642 7.61783 17.578 6.00637 18.0183 4.76115C18.3853 3.51592 18.6055 2.78344 18.6055 2.49045C18.6055 2.19745 18.5321 1.97771 18.3853 1.75796C18.2385 1.61147 18.0917 1.53822 17.8716 1.53822C17.578 1.53822 17.2844 1.75796 16.9908 2.2707C16.6972 2.78344 16.3303 3.51592 15.9633 4.61465L14.3486 9.15605L16.3303 9.52229Z" fill="black"/>
</svg>
