<svg width="24" height="24" viewBox="0 0 24 24" fill="none" xmlns="http://www.w3.org/2000/svg">
<g clip-path="url(#clip0)">
<path fill-rule="evenodd" clip-rule="evenodd" d="M24 12.0229C24 5.39604 18.6269 0.0229492 12 0.0229492C5.37309 0.0229492 0 5.39604 0 12.0229C0 18.012 4.38761 22.9767 10.1252 23.8779V15.4925H7.07748V12.0229H10.1252V9.37857C10.1252 6.37137 11.9173 4.70916 14.6578 4.70916C15.9707 4.70916 17.3444 4.94372 17.3444 4.94372V7.89693H15.8306C14.3406 7.89693 13.8748 8.8217 13.8748 9.77175V12.0229H17.2026L16.671 15.4924H13.8747V23.8778C19.6123 22.9782 23.9999 18.0135 23.9999 12.0229L24 12.0229Z" fill="#1977F3"/>
<path fill-rule="evenodd" clip-rule="evenodd" d="M16.671 15.4923L17.2026 12.0227H13.8749V9.77158C13.8749 8.82319 14.3389 7.89676 15.8307 7.89676H17.3444V4.94354C17.3444 4.94354 15.9708 4.70898 14.6579 4.70898C11.9174 4.70898 10.1252 6.36954 10.1252 9.3784V12.0228H7.07751V15.4924H10.1252V23.8777C10.7361 23.9738 11.3621 24.0228 12 24.0228C12.6379 24.0228 13.264 23.9721 13.8749 23.8777V15.4924H16.6711L16.671 15.4923Z" fill="white"/>
</g>
<defs>
<clipPath id="clip0">
<rect width="24" height="24" fill="white"/>
</clipPath>
</defs>
</svg>
