<svg width="24" height="24" viewBox="0 0 24 24" fill="none" xmlns="http://www.w3.org/2000/svg">
<path d="M19.745 19.7453H16.4853V14.6404C16.4853 13.4231 16.4636 11.856 14.79 11.856C13.0922 11.856 12.8324 13.1824 12.8324 14.5518V19.745H9.57278V9.24722H12.702V10.6819H12.7459C13.059 10.1464 13.5116 9.70587 14.0553 9.40724C14.599 9.10862 15.2135 8.96305 15.8334 8.98605C19.1373 8.98605 19.7464 11.1592 19.7464 13.9864L19.745 19.7453ZM5.89466 7.81232C4.84991 7.81249 4.00283 6.96566 4.00266 5.92092C4.00248 4.87618 4.84923 4.02909 5.89397 4.02892C6.93871 4.02866 7.7858 4.87549 7.78597 5.92023C7.78606 6.42194 7.58685 6.90313 7.23216 7.25797C6.87748 7.6128 6.39636 7.8122 5.89466 7.81232ZM7.52455 19.7454H4.26141V9.24722H7.52446V19.7453L7.52455 19.7454ZM21.3701 1.0016H2.62345C1.73743 0.991632 1.01083 1.70139 1 2.58741V21.4123C1.01048 22.2987 1.737 23.0092 2.62336 22.9999H21.3701C22.2584 23.0109 22.9877 22.3004 23 21.4123V2.58594C22.9874 1.69821 22.2579 0.988539 21.3701 1.00014" fill="#0A66C2"/>
</svg>
