<svg width="180" height="45" viewBox="0 0 180 45" fill="none" xmlns="http://www.w3.org/2000/svg">
<path d="M5.24131 41.7163C7.7024 43.3944 10.9265 44.2796 14.5695 44.2796C18.5242 44.2796 21.8406 43.2448 24.4313 41.2076C27.254 38.9859 29.1266 35.6172 29.9943 31.1962L35.9588 0.703125H29.3286L27.9073 8.0091L25.344 21.1698L24.0997 27.5582L23.4564 30.8596C23.0549 33.014 21.9902 38.7441 14.7565 38.7441C11.0163 38.7441 8.31331 37.238 7.28598 34.5998H0.703125C1.18936 37.5646 2.75279 40.0182 5.24131 41.7163Z" fill="#E83755"/>
<path d="M0.839722 17.5193V11.7568L24.937 0.703125L23.6603 7.26105L8.47733 14.5745L20.9897 20.9679L19.9126 26.5134L0.839722 17.5193Z" fill="#E83755"/>
<path d="M109.909 0.703125H104.346V33.8742H109.906V21.868C109.906 17.5717 112.335 15.3749 115.746 15.3749C119.25 15.3749 121.586 17.4769 121.586 21.868V33.8742H127.146V21.868C127.146 13.6469 122.102 10.1884 116.776 10.1884C113.834 10.1884 111.45 11.5424 109.909 14.0184V0.703125Z" fill="#0D3455"/>
<path fill-rule="evenodd" clip-rule="evenodd" d="M74.3888 22.5687C74.3888 15.2328 79.5279 10.1884 86.8638 10.1884C94.105 10.1884 99.1519 15.0931 99.1519 22.5213V33.8742H94.0601V29.3436C92.6588 32.7547 89.5294 34.4827 85.8839 34.4827C80.276 34.4802 74.3888 30.4632 74.3888 22.5687ZM93.5913 22.3343C93.5913 18.2699 90.8809 15.3724 86.8165 15.3724C82.7521 15.3724 79.9967 18.2699 79.9967 22.3343C79.9967 26.3987 82.7521 29.2961 86.8165 29.2961C90.8809 29.2961 93.5913 26.3987 93.5913 22.3343Z" fill="#0D3455"/>
<path d="M47.5138 36.3976H53.0743C54.0094 38.5471 55.8297 39.527 58.6349 39.527C62.42 39.527 64.5694 37.7042 64.5694 33.2209V30.3235C63.1681 32.8469 60.7394 34.2009 57.7023 34.2009C52.3762 34.2009 47.3318 30.7424 47.3318 22.5213V10.7943H52.8923V22.5213C52.8923 26.9123 55.2287 29.0144 58.7321 29.0144C62.1432 29.0144 64.5719 26.8176 64.5719 22.5213V10.7943H70.1324V33.0788C70.1324 41.1154 65.0407 44.3395 58.6398 44.3395C53.2589 44.3395 48.8204 41.8635 47.5138 36.3976Z" fill="#0D3455"/>
<path d="M137.908 0.703125V14.0184C139.449 11.5424 141.833 10.1884 144.776 10.1884C150.102 10.1884 155.146 13.6469 155.146 21.868V33.8742H149.586V21.868C149.586 17.4769 147.249 15.3749 143.746 15.3749C140.335 15.3749 137.906 17.5717 137.906 21.868V33.8742H132.345V0.703125H137.908Z" fill="#0D3455"/>
<path d="M159.914 2.61818V24.9974C159.914 31.3982 163.744 34.4777 169.352 34.4777C174.959 34.4777 178.789 31.3957 178.789 24.9949V24.3865H173.229V24.9949C173.229 28.1268 171.641 29.2937 169.352 29.2937C167.063 29.2937 165.474 28.0794 165.474 24.9949V15.8388H177.388V10.7944H165.474V2.61818H159.914Z" fill="#0D3455"/>
</svg>
